<?xml version="1.0" encoding="utf-8"?>
<!-- Generator: Adobe Illustrator 19.0.0, SVG Export Plug-In . SVG Version: 6.00 Build 0)  -->
<svg version="1.1"
	 id="Layer_1" xmlns:dc="http://purl.org/dc/elements/1.1/" xmlns:cc="http://creativecommons.org/ns#" xmlns:rdf="http://www.w3.org/1999/02/22-rdf-syntax-ns#"
	 xmlns="http://www.w3.org/2000/svg" xmlns:xlink="http://www.w3.org/1999/xlink" x="0px" y="0px" viewBox="-177 320 256 153"
	 style="enable-background:new -177 320 256 153;" xml:space="preserve">
<style type="text/css">
	.st0{fill:#BEBEBE;}
	.st1{fill:#FFFFFF;}
</style>
<title>WooCommerce Logo</title>
<path class="st0" d="M-153.2,320H55.1c13.2,0,23.9,10.7,23.9,23.9v79.5c0,13.2-10.7,23.9-23.9,23.9h-74.7l10.3,25.1l-45.1-25.1
	h-98.7c-13.2,0-23.9-10.7-23.9-23.9v-79.5C-177.1,330.8-166.4,320-153.2,320L-153.2,320z"/>
<path class="st1" d="M-162.4,341.8c1.5-2,3.6-3,6.6-3.2c5.3-0.4,8.3,2.1,9.1,7.5c3.2,21.8,6.8,40.2,10.5,55.3l22.8-43.4
	c2.1-4,4.7-6,7.8-6.2c4.6-0.3,7.4,2.6,8.5,8.7c2.6,13.8,5.9,25.6,9.9,35.6c2.7-26.4,7.3-45.5,13.7-57.2c1.6-2.9,3.9-4.4,6.9-4.6
	c2.4-0.2,4.6,0.5,6.6,2.1c2,1.6,3,3.5,3.2,5.9c0.1,1.9-0.2,3.4-1,5c-4.1,7.5-7.4,20.1-10.1,37.6c-2.6,17-3.5,30.2-2.9,39.6
	c0.2,2.6-0.2,4.9-1.2,6.9c-1.2,2.3-3.1,3.5-5.5,3.7c-2.7,0.2-5.5-1-8.2-3.9c-9.7-9.9-17.4-24.7-23-44.3c-6.8,13.3-11.8,23.3-15,30
	c-6.1,11.8-11.3,17.8-15.7,18.1c-2.8,0.2-5.2-2.2-7.3-7.2c-5.3-13.6-11-40-17.2-79C-164.5,346-163.9,343.6-162.4,341.8L-162.4,341.8
	z M61.2,358.1c-3.7-6.6-9.3-10.5-16.6-12.1c-2-0.4-3.9-0.6-5.6-0.6c-10,0-18.1,5.2-24.5,15.6c-5.4,8.8-8.1,18.6-8.1,29.3
	c0,8,1.7,14.9,5,20.6c3.7,6.6,9.3,10.5,16.6,12.1c2,0.4,3.9,0.6,5.6,0.6c10.1,0,18.2-5.2,24.5-15.6c5.4-8.9,8.1-18.7,8.1-29.5
	C66.3,370.5,64.5,363.7,61.2,358.1z M48.1,386.9c-1.5,6.9-4.1,12-7.9,15.4c-3,2.7-5.8,3.9-8.4,3.3c-2.5-0.5-4.6-2.7-6.1-6.8
	c-1.2-3.2-1.9-6.5-1.9-9.5c0-2.6,0.2-5.2,0.7-7.6c0.9-4.3,2.7-8.4,5.5-12.4c3.4-5.1,7.1-7.2,10.8-6.5c2.5,0.5,4.6,2.7,6.1,6.8
	c1.2,3.2,1.9,6.5,1.9,9.5C48.8,381.9,48.6,384.5,48.1,386.9L48.1,386.9z M-3.9,358.1c-3.7-6.6-9.4-10.5-16.6-12.1
	c-2-0.4-3.9-0.6-5.6-0.6c-10,0-18.1,5.2-24.5,15.6c-5.4,8.8-8.1,18.6-8.1,29.3c0,8,1.7,14.9,5,20.6c3.7,6.6,9.3,10.5,16.6,12.1
	c2,0.4,3.9,0.6,5.6,0.6c10.1,0,18.2-5.2,24.5-15.6c5.4-8.9,8.1-18.7,8.1-29.5C1.1,370.5-0.6,363.7-3.9,358.1z M-17.1,386.9
	c-1.5,6.9-4.1,12-7.9,15.4c-3,2.7-5.8,3.9-8.4,3.3c-2.5-0.5-4.6-2.7-6.1-6.8c-1.2-3.2-1.9-6.5-1.9-9.5c0-2.6,0.2-5.2,0.7-7.6
	c0.9-4.3,2.7-8.4,5.5-12.4c3.4-5.1,7.1-7.2,10.8-6.5c2.5,0.5,4.6,2.7,6.1,6.8c1.2,3.2,1.9,6.5,1.9,9.5
	C-16.3,381.9-16.6,384.5-17.1,386.9L-17.1,386.9z"/>
</svg>
